<svg width="350" height="71" viewBox="0 0 350 71" fill="none" xmlns="http://www.w3.org/2000/svg">
<path d="M93.24 55.9416C90.2533 55.9416 87.3787 55.5402 84.616 54.7376C81.8533 53.9349 79.5574 52.8242 77.728 51.4056L80.528 45.1896C84.336 47.8402 88.6107 49.1656 93.352 49.1656C95.816 49.1656 97.7107 48.7642 99.036 47.9616C100.361 47.1589 101.024 46.0482 101.024 44.6296C101.024 43.3602 100.417 42.3709 99.204 41.6616C97.9907 40.9522 95.8347 40.2616 92.736 39.5896C89.264 38.8802 86.492 38.0216 84.42 37.0136C82.348 36.0055 80.836 34.7642 79.884 33.2896C78.932 31.8149 78.456 29.9949 78.456 27.8296C78.456 25.4402 79.1187 23.3122 80.444 21.4456C81.7694 19.5789 83.6267 18.1136 86.016 17.0496C88.4054 15.9855 91.168 15.4536 94.304 15.4536C97.104 15.4536 99.8013 15.8642 102.396 16.6856C104.991 17.5069 107.053 18.6082 108.584 19.9896L105.784 26.2056C102.163 23.5549 98.3547 22.2296 94.36 22.2296C92.0827 22.2296 90.2907 22.6682 88.984 23.5456C87.6774 24.4229 87.024 25.6269 87.024 27.1576C87.024 28.0536 87.276 28.7909 87.78 29.3696C88.284 29.9482 89.124 30.4616 90.3 30.9096C91.476 31.3576 93.1467 31.8242 95.312 32.3096C100.389 33.4296 104.039 34.8669 106.26 36.6216C108.481 38.3762 109.592 40.8029 109.592 43.9016C109.592 47.6349 108.155 50.5749 105.28 52.7216C102.405 54.8682 98.3921 55.9416 93.24 55.9416ZM129.864 49.6696C130.723 49.6696 131.619 49.6136 132.552 49.5016L132.104 55.6616C131.021 55.8109 129.939 55.8856 128.856 55.8856C124.675 55.8856 121.623 54.9709 119.7 53.1416C117.777 51.3122 116.816 48.5309 116.816 44.7976V34.2696H111.608V27.9416H116.816V19.8776H125.272V27.9416H132.16V34.2696H125.272V44.7416C125.272 48.0269 126.803 49.6696 129.864 49.6696ZM149.52 55.8856C146.608 55.8856 144.051 55.2976 141.848 54.1216C139.645 52.9456 137.947 51.2842 136.752 49.1376C135.557 46.9909 134.96 44.4616 134.96 41.5496C134.96 38.6375 135.557 36.1082 136.752 33.9616C137.947 31.8149 139.645 30.1629 141.848 29.0056C144.051 27.8482 146.608 27.2696 149.52 27.2696C152.432 27.2696 154.989 27.8482 157.192 29.0056C159.395 30.1629 161.093 31.8149 162.288 33.9616C163.483 36.1082 164.08 38.6375 164.08 41.5496C164.08 44.4616 163.483 46.9909 162.288 49.1376C161.093 51.2842 159.395 52.9456 157.192 54.1216C154.989 55.2976 152.432 55.8856 149.52 55.8856ZM149.52 49.4456C153.627 49.4456 155.68 46.8136 155.68 41.5496C155.68 38.8989 155.148 36.9202 154.084 35.6136C153.02 34.3069 151.499 33.6536 149.52 33.6536C145.413 33.6536 143.36 36.2855 143.36 41.5496C143.36 46.8136 145.413 49.4456 149.52 49.4456ZM187.488 34.2136L182.728 34.7176C180.376 34.9416 178.715 35.6042 177.744 36.7056C176.773 37.8069 176.288 39.2722 176.288 41.1016V55.4376H167.832V27.9416H175.952V32.5896C177.333 29.4162 180.189 27.6802 184.52 27.3816L186.984 27.2136L187.488 34.2136ZM212.058 27.9976H220.346L203.77 65.5176H195.202L200.466 53.9256L189.154 27.9976H197.946L204.89 45.4696L212.058 27.9976ZM239.946 27.2696C242.335 27.2696 244.445 27.8482 246.274 29.0056C248.103 30.1629 249.531 31.8149 250.558 33.9616C251.585 36.1082 252.098 38.6002 252.098 41.4376C252.098 44.2749 251.585 46.7855 250.558 48.9696C249.531 51.1536 248.094 52.8522 246.246 54.0656C244.398 55.2789 242.298 55.8856 239.946 55.8856C238.042 55.8856 236.325 55.4842 234.794 54.6816C233.263 53.8789 232.087 52.7682 231.266 51.3496V55.4376H222.922V15.9576H231.378V31.6376C232.199 30.2562 233.366 29.1829 234.878 28.4176C236.39 27.6522 238.079 27.2696 239.946 27.2696ZM237.482 49.4456C239.461 49.4456 240.991 48.7456 242.074 47.3456C243.157 45.9455 243.698 43.9762 243.698 41.4376C243.698 38.9362 243.157 37.0229 242.074 35.6976C240.991 34.3722 239.461 33.7096 237.482 33.7096C235.503 33.7096 233.973 34.3909 232.89 35.7536C231.807 37.1162 231.266 39.0482 231.266 41.5496C231.266 44.0882 231.807 46.0389 232.89 47.4016C233.973 48.7642 235.503 49.4456 237.482 49.4456ZM270.466 55.8856C267.554 55.8856 264.997 55.2976 262.794 54.1216C260.591 52.9456 258.893 51.2842 257.698 49.1376C256.503 46.9909 255.906 44.4616 255.906 41.5496C255.906 38.6375 256.503 36.1082 257.698 33.9616C258.893 31.8149 260.591 30.1629 262.794 29.0056C264.997 27.8482 267.554 27.2696 270.466 27.2696C273.378 27.2696 275.935 27.8482 278.138 29.0056C280.341 30.1629 282.039 31.8149 283.234 33.9616C284.429 36.1082 285.026 38.6375 285.026 41.5496C285.026 44.4616 284.429 46.9909 283.234 49.1376C282.039 51.2842 280.341 52.9456 278.138 54.1216C275.935 55.2976 273.378 55.8856 270.466 55.8856ZM270.466 49.4456C274.573 49.4456 276.626 46.8136 276.626 41.5496C276.626 38.8989 276.094 36.9202 275.03 35.6136C273.966 34.3069 272.445 33.6536 270.466 33.6536C266.359 33.6536 264.306 36.2855 264.306 41.5496C264.306 46.8136 266.359 49.4456 270.466 49.4456ZM301.994 55.8856C299.082 55.8856 296.525 55.2976 294.322 54.1216C292.119 52.9456 290.421 51.2842 289.226 49.1376C288.031 46.9909 287.434 44.4616 287.434 41.5496C287.434 38.6375 288.031 36.1082 289.226 33.9616C290.421 31.8149 292.119 30.1629 294.322 29.0056C296.525 27.8482 299.082 27.2696 301.994 27.2696C304.906 27.2696 307.463 27.8482 309.666 29.0056C311.869 30.1629 313.567 31.8149 314.762 33.9616C315.957 36.1082 316.554 38.6375 316.554 41.5496C316.554 44.4616 315.957 46.9909 314.762 49.1376C313.567 51.2842 311.869 52.9456 309.666 54.1216C307.463 55.2976 304.906 55.8856 301.994 55.8856ZM301.994 49.4456C306.101 49.4456 308.154 46.8136 308.154 41.5496C308.154 38.8989 307.622 36.9202 306.558 35.6136C305.494 34.3069 303.973 33.6536 301.994 33.6536C297.887 33.6536 295.834 36.2855 295.834 41.5496C295.834 46.8136 297.887 49.4456 301.994 49.4456ZM350 55.4376H339.64L329.112 43.1736V55.4376H320.656V15.9576H329.112V39.7016L339.248 27.9976H349.328L337.792 41.1016L350 55.4376Z" fill="white"/>
<path d="M2.17098 65.0339L0.00252033 7.25437C-0.0690953 5.34614 1.39407 3.72894 3.29993 3.60982L52.4455 0.538223C54.3854 0.416977 56.0563 1.89132 56.1776 3.83125C56.1822 3.90434 56.1844 3.97755 56.1844 4.05079V67.0118C56.1844 68.9556 54.6087 70.5313 52.665 70.5313C52.6124 70.5313 52.5597 70.5301 52.5071 70.5277L5.53001 68.4178C3.70044 68.3356 2.23966 66.8641 2.17098 65.0339Z" fill="#FF4785"/>
<mask id="mask0_601_14" style="mask-type:luminance" maskUnits="userSpaceOnUse" x="0" y="0" width="57" height="71">
<path d="M2.17098 65.0339L0.00252033 7.25437C-0.0690953 5.34614 1.39407 3.72894 3.29993 3.60982L52.4455 0.538223C54.3854 0.416977 56.0563 1.89132 56.1776 3.83125C56.1822 3.90434 56.1844 3.97755 56.1844 4.05079V67.0118C56.1844 68.9556 54.6087 70.5313 52.665 70.5313C52.6124 70.5313 52.5597 70.5301 52.5071 70.5277L5.53001 68.4178C3.70044 68.3356 2.23966 66.8641 2.17098 65.0339Z" fill="white"/>
</mask>
<g mask="url(#mask0_601_14)">
<path d="M41.4879 9.13537L41.8236 1.06154L48.5728 0.53125L48.8635 8.8575C48.8736 9.14728 48.6469 9.39039 48.3572 9.40051C48.2331 9.40484 48.1115 9.36506 48.014 9.28823L45.4113 7.23792L42.3297 9.57545C42.0987 9.75068 41.7694 9.70547 41.5942 9.47446C41.5204 9.37722 41.4828 9.25731 41.4879 9.13537ZM32.8564 26.9152C32.8564 28.2845 42.0795 27.6282 43.3176 26.6664C43.3176 17.3421 38.3144 12.4423 29.1527 12.4423C19.991 12.4423 14.8578 17.4183 14.8578 24.8823C14.8578 37.8822 32.4015 38.131 32.4015 45.2218C32.4015 47.2123 31.4269 48.3941 29.2827 48.3941C26.4887 48.3941 25.384 46.9671 25.514 42.1155C25.514 41.063 14.8578 40.7349 14.5329 42.1155C13.7056 53.8727 21.0306 57.264 29.4126 57.264C37.5347 57.264 43.9024 52.9347 43.9024 45.0974C43.9024 31.1646 26.0988 31.5378 26.0988 24.6335C26.0988 21.8345 28.178 21.4613 29.4126 21.4613C30.7121 21.4613 33.0513 21.6904 32.8564 26.9152Z" fill="white"/>
</g>
</svg>
